<svg width="16" height="16" viewBox="0 0 16 16" fill="none" xmlns="http://www.w3.org/2000/svg">
<g clip-path="url(#clip0_19877_136711)">
<path d="M15.1888 6.46815L13.9401 5.21882C13.7574 5.04265 13.5233 4.9294 13.2717 4.89555C13.0202 4.86171 12.7644 4.90904 12.5417 5.03065C12.3218 5.14404 12.0715 5.18459 11.8271 5.14644C11.5826 5.1083 11.3566 4.99345 11.1817 4.81846C11.0068 4.64348 10.892 4.41743 10.854 4.17296C10.8159 3.92848 10.8566 3.67825 10.9701 3.45839C11.0913 3.23549 11.1384 2.97975 11.1044 2.72829C11.0705 2.47682 10.9573 2.24272 10.7813 2.05995L9.53192 0.811279C9.31288 0.593014 9.01627 0.470459 8.70705 0.470459C8.39783 0.470459 8.10122 0.593014 7.88218 0.811279L0.8112 7.88221C0.592646 8.1011 0.469891 8.39777 0.469891 8.70708C0.469891 9.0164 0.592646 9.31307 0.8112 9.53195L2.05987 10.7813C2.24256 10.9575 2.47672 11.0707 2.72825 11.1046C2.97978 11.1384 3.23555 11.0911 3.45831 10.9694C3.67821 10.8561 3.92846 10.8155 4.17292 10.8536C4.41738 10.8918 4.64338 11.0066 4.81829 11.1816C4.9932 11.3566 5.10797 11.5827 5.14601 11.8271C5.18405 12.0716 5.14339 12.3218 5.02992 12.5417C4.90868 12.7646 4.86162 13.0203 4.89557 13.2718C4.92952 13.5233 5.04272 13.7574 5.21873 13.9401L6.46806 15.1888C6.68699 15.4073 6.98365 15.53 7.29293 15.53C7.60221 15.53 7.89887 15.4073 8.1178 15.1888L15.1888 8.11789C15.4074 7.89901 15.5301 7.60234 15.5301 7.29302C15.5301 6.98371 15.4074 6.68704 15.1888 6.46815ZM6.11442 8.19533C5.98257 8.19533 5.85367 8.15623 5.74404 8.08297C5.63441 8.00972 5.54896 7.9056 5.4985 7.78378C5.44804 7.66196 5.43484 7.52792 5.46056 7.3986C5.48629 7.26928 5.54978 7.15049 5.64302 7.05725C5.73625 6.96402 5.85504 6.90053 5.98436 6.8748C6.11368 6.84908 6.24773 6.86228 6.36954 6.91274C6.49136 6.9632 6.59548 7.04865 6.66873 7.15828C6.74199 7.26791 6.78109 7.3968 6.78109 7.52866C6.78108 7.70547 6.71084 7.87503 6.58581 8.00005C6.46079 8.12508 6.29123 8.19532 6.11442 8.19533ZM8.5 10.0001C8.5 10.1327 8.44732 10.2598 8.35355 10.3536C8.25979 10.4474 8.13261 10.5001 8 10.5001C7.86739 10.5001 7.74022 10.4474 7.64645 10.3536C7.55268 10.2598 7.5 10.1327 7.5 10.0001V6.00005C7.5 5.86744 7.55268 5.74027 7.64645 5.6465C7.74022 5.55273 7.86739 5.50005 8 5.50005C8.13261 5.50005 8.25979 5.55273 8.35355 5.6465C8.44732 5.74027 8.5 5.86744 8.5 6.00005V10.0001ZM9.88558 9.13811C9.75373 9.13811 9.62483 9.09901 9.5152 9.02576C9.40557 8.95251 9.32012 8.84838 9.26966 8.72657C9.2192 8.60475 9.206 8.47071 9.23172 8.34139C9.25745 8.21207 9.32094 8.09328 9.41418 8.00004C9.50741 7.90681 9.6262 7.84331 9.75552 7.81759C9.88484 7.79187 10.0189 7.80507 10.1407 7.85553C10.2625 7.90598 10.3666 7.99143 10.4399 8.10107C10.5131 8.2107 10.5522 8.33959 10.5522 8.47145C10.5522 8.64826 10.482 8.81783 10.357 8.94285C10.232 9.06787 10.0624 9.13811 9.88558 9.13811Z" fill="#1455AC"/>
</g>
<defs>
<clipPath id="clip0_19877_136711">
<rect width="16" height="16" fill="white"/>
</clipPath>
</defs>
</svg>
