<svg width="16" height="16" viewBox="0 0 16 16" fill="none" xmlns="http://www.w3.org/2000/svg">
<path d="M12 1.33325H4C3.46957 1.33325 2.96086 1.54397 2.58579 1.91904C2.21072 2.29411 2 2.80282 2 3.33325V13.1999C1.99951 13.4253 2.05615 13.6471 2.16463 13.8446C2.2731 14.0421 2.42988 14.209 2.62031 14.3295C2.81073 14.45 3.0286 14.5203 3.25355 14.5338C3.47851 14.5472 3.70321 14.5035 3.90667 14.4066C4.06667 14.3266 4.20667 14.2399 4.35334 14.1533C4.63541 13.9415 4.98071 13.8311 5.33334 13.8399C5.68801 13.8311 6.03539 13.9414 6.32 14.1533C6.81229 14.4964 7.40002 14.676 8 14.6666C8.60005 14.6764 9.18792 14.4968 9.68 14.1533C9.96437 13.941 10.3119 13.8306 10.6667 13.8399C11.0194 13.83 11.3651 13.9405 11.6467 14.1533C11.7911 14.2433 11.9402 14.3257 12.0933 14.3999C12.2963 14.4966 12.5204 14.5404 12.7448 14.5272C12.9692 14.514 13.1866 14.4443 13.3769 14.3246C13.5671 14.2049 13.724 14.039 13.833 13.8423C13.9419 13.6457 13.9994 13.4247 14 13.1999V3.33325C14 2.80282 13.7893 2.29411 13.4142 1.91904C13.0391 1.54397 12.5304 1.33325 12 1.33325ZM8 10.6666H5.33334C5.15653 10.6666 4.98696 10.5963 4.86193 10.4713C4.73691 10.3463 4.66667 10.1767 4.66667 9.99992C4.66667 9.82311 4.73691 9.65354 4.86193 9.52851C4.98696 9.40349 5.15653 9.33325 5.33334 9.33325H8C8.17681 9.33325 8.34638 9.40349 8.47141 9.52851C8.59643 9.65354 8.66667 9.82311 8.66667 9.99992C8.66667 10.1767 8.59643 10.3463 8.47141 10.4713C8.34638 10.5963 8.17681 10.6666 8 10.6666ZM10.6667 7.99992H5.33334C5.15653 7.99992 4.98696 7.92968 4.86193 7.80466C4.73691 7.67963 4.66667 7.51006 4.66667 7.33325C4.66667 7.15644 4.73691 6.98687 4.86193 6.86185C4.98696 6.73682 5.15653 6.66659 5.33334 6.66659H10.6667C10.8435 6.66659 11.0131 6.73682 11.1381 6.86185C11.2631 6.98687 11.3333 7.15644 11.3333 7.33325C11.3333 7.51006 11.2631 7.67963 11.1381 7.80466C11.0131 7.92968 10.8435 7.99992 10.6667 7.99992ZM10.6667 5.33325H5.33334C5.15653 5.33325 4.98696 5.26301 4.86193 5.13799C4.73691 5.01297 4.66667 4.8434 4.66667 4.66659C4.66667 4.48977 4.73691 4.32021 4.86193 4.19518C4.98696 4.07016 5.15653 3.99992 5.33334 3.99992H10.6667C10.8435 3.99992 11.0131 4.07016 11.1381 4.19518C11.2631 4.32021 11.3333 4.48977 11.3333 4.66659C11.3333 4.8434 11.2631 5.01297 11.1381 5.13799C11.0131 5.26301 10.8435 5.33325 10.6667 5.33325Z" fill="#1455AC"/>
</svg>
