<svg width="19" height="19" viewBox="0 0 19 19" fill="none" xmlns="http://www.w3.org/2000/svg">
<g clip-path="url(#clip0_19877_138230)">
<path d="M9.50008 0.791992C4.69828 0.791992 0.791748 4.69853 0.791748 9.50033C0.791748 14.3021 4.69828 18.2087 9.50008 18.2087C14.3019 18.2087 18.2084 14.3021 18.2084 9.50033C18.2084 4.69853 14.3019 0.791992 9.50008 0.791992Z" fill="#1455AC"/>
<path d="M13.2265 12.1073C13.5357 12.4163 13.5357 12.9177 13.2265 13.2267C13.0721 13.3813 12.8693 13.4587 12.6667 13.4587C12.4642 13.4587 12.2614 13.3813 12.107 13.2267L9.50008 10.6198L6.89315 13.2267C6.73872 13.3813 6.53597 13.4587 6.33341 13.4587C6.13086 13.4587 5.92811 13.3813 5.77368 13.2267C5.46444 12.9177 5.46444 12.4163 5.77368 12.1073L8.38061 9.50033L5.77368 6.89339C5.46444 6.58434 5.46444 6.08298 5.77368 5.77393C6.08254 5.46468 6.58429 5.46468 6.89315 5.77393L9.50008 8.38086L12.107 5.77393C12.4159 5.46468 12.9176 5.46468 13.2265 5.77393C13.5357 6.08298 13.5357 6.58434 13.2265 6.89339L10.6195 9.50033L13.2265 12.1073Z" fill="white"/>
</g>
<defs>
<clipPath id="clip0_19877_138230">
<rect width="19" height="19" fill="white"/>
</clipPath>
</defs>
</svg>
