<svg width="35" height="35" viewBox="0 0 35 35" fill="none" xmlns="http://www.w3.org/2000/svg">
<g clip-path="url(#clip0_21180_17612)">
<path d="M17.0056 0.113049L1.33295 7.6792C1.13642 7.77409 1.0116 7.97301 1.0116 8.19121V26.8088C1.0116 27.027 1.13649 27.2259 1.33295 27.3208L17.0056 34.8869C17.318 35.0377 17.6821 35.0377 17.9944 34.8869L33.6671 27.3208C33.8636 27.2259 33.9884 27.027 33.9884 26.8088V8.19121C33.9884 7.97301 33.8635 7.77409 33.6671 7.6792L17.9944 0.113049C17.6821 -0.0376831 17.318 -0.0376831 17.0056 0.113049Z" fill="#FFE17D"/>
<path d="M1.10614 7.87988C1.04639 7.97087 1.0116 8.07799 1.0116 8.19112V26.8087C1.0116 27.0269 1.13649 27.2258 1.33295 27.3207L17.0056 34.8868C17.1618 34.9622 17.3309 34.9998 17.5 34.9998V15.7942L1.10614 7.87988Z" fill="#FFC350"/>
<path d="M33.8939 7.87988C33.9536 7.97087 33.9884 8.07799 33.9884 8.19112V26.8087C33.9884 27.0269 33.8635 27.2258 33.6671 27.3207L17.9944 34.8868C17.8382 34.9622 17.6691 34.9999 17.5 34.9999V15.7942L33.8939 7.87988Z" fill="#FFD164"/>
<path d="M5.70168 25.8165C5.61896 25.8165 5.53454 25.7982 5.45518 25.7599L3.03546 24.5917C2.75231 24.4552 2.63405 24.1153 2.77063 23.8327C2.90667 23.5501 3.24758 23.4324 3.52963 23.5679L5.94935 24.7362C6.23249 24.8728 6.35075 25.2126 6.21417 25.4952C6.11648 25.6983 5.91325 25.8165 5.70168 25.8165Z" fill="#FFE17D"/>
<path d="M7.92874 24.3663C7.84603 24.3663 7.7616 24.348 7.68224 24.3097L3.03872 22.0682C2.75612 21.9316 2.63732 21.5918 2.7739 21.3092C2.90993 21.0272 3.25139 20.9089 3.53289 21.0444L8.17634 23.2859C8.45894 23.4225 8.57775 23.7623 8.44116 24.0449C8.34355 24.248 8.14031 24.3663 7.92874 24.3663Z" fill="#FFF6D8"/>
<path d="M28.3383 10.5531L11.8868 2.60547L7.55011 4.70752L24.0385 12.6675L28.3383 10.5531Z" fill="#FF8087"/>
<path d="M24.0385 12.667V18.8335C24.0385 19.0431 24.2576 19.1806 24.4464 19.0895L28.017 17.3658C28.2135 17.271 28.3383 17.072 28.3383 16.8538V10.5527L24.0385 12.667Z" fill="#E6646E"/>
</g>
<defs>
<clipPath id="clip0_21180_17612">
<rect width="35" height="35" fill="white"/>
</clipPath>
</defs>
</svg>
