<svg width="14" height="15" viewBox="0 0 14 15" fill="none" xmlns="http://www.w3.org/2000/svg">
<g clip-path="url(#clip0_17754_46705)">
<path d="M9.18182 2.83333H12.4545C12.5992 2.83333 12.7379 2.89479 12.8402 3.00419C12.9425 3.11358 13 3.26196 13 3.41667C13 3.57138 12.9425 3.71975 12.8402 3.82915C12.7379 3.93854 12.5992 4 12.4545 4H11.8513L11.0309 11.9053C10.9568 12.6188 10.6393 13.278 10.1391 13.7567C9.63893 14.2354 8.99124 14.5001 8.32 14.5H5.68C5.00876 14.5001 4.36107 14.2354 3.8609 13.7567C3.36072 13.278 3.0432 12.6188 2.96909 11.9053L2.14764 4H1.54545C1.40079 4 1.26205 3.93854 1.15976 3.82915C1.05747 3.71975 1 3.57138 1 3.41667C1 3.26196 1.05747 3.11358 1.15976 3.00419C1.26205 2.89479 1.40079 2.83333 1.54545 2.83333H4.81818C4.81818 2.21449 5.04805 1.621 5.45722 1.18342C5.86639 0.745833 6.42135 0.5 7 0.5C7.57865 0.5 8.13361 0.745833 8.54278 1.18342C8.95195 1.621 9.18182 2.21449 9.18182 2.83333ZM7 1.66667C6.71067 1.66667 6.4332 1.78958 6.22861 2.00838C6.02403 2.22717 5.90909 2.52391 5.90909 2.83333H8.09091C8.09091 2.52391 7.97597 2.22717 7.77139 2.00838C7.5668 1.78958 7.28933 1.66667 7 1.66667ZM5.36364 6.33333V11C5.36364 11.1547 5.4211 11.3031 5.5234 11.4125C5.62569 11.5219 5.76443 11.5833 5.90909 11.5833C6.05375 11.5833 6.19249 11.5219 6.29479 11.4125C6.39708 11.3031 6.45455 11.1547 6.45455 11V6.33333C6.45455 6.17862 6.39708 6.03025 6.29479 5.92085C6.19249 5.81146 6.05375 5.75 5.90909 5.75C5.76443 5.75 5.62569 5.81146 5.5234 5.92085C5.4211 6.03025 5.36364 6.17862 5.36364 6.33333ZM8.09091 5.75C7.94625 5.75 7.80751 5.81146 7.70521 5.92085C7.60292 6.03025 7.54545 6.17862 7.54545 6.33333V11C7.54545 11.1547 7.60292 11.3031 7.70521 11.4125C7.80751 11.5219 7.94625 11.5833 8.09091 11.5833C8.23557 11.5833 8.37431 11.5219 8.4766 11.4125C8.5789 11.3031 8.63636 11.1547 8.63636 11V6.33333C8.63636 6.17862 8.5789 6.03025 8.4766 5.92085C8.37431 5.81146 8.23557 5.75 8.09091 5.75Z" fill="#FF5555"/>
</g>
<defs>
<clipPath id="clip0_17754_46705">
<rect width="14" height="14" fill="white" transform="translate(0 0.5)"/>
</clipPath>
</defs>
</svg>
