<svg width="16" height="16" viewBox="0 0 16 16" fill="none" xmlns="http://www.w3.org/2000/svg">
<path d="M3.63477 14.6668H9.69857C10.8642 14.6668 11.82 13.7923 11.9695 12.6668H12.3652C13.6342 12.6668 14.6667 11.6343 14.6667 10.3654V3.6349C14.6667 2.36603 13.6342 1.3335 12.3653 1.3335H6.30144C5.03257 1.3335 4.00004 2.36603 4.00004 3.6349V4.00016H3.63477C2.36591 4.00016 1.33337 5.0327 1.33337 6.30156V12.3654C1.33337 13.6343 2.36591 14.6668 3.63477 14.6668ZM5.33337 3.6349C5.33337 3.1011 5.76764 2.66683 6.30144 2.66683H12.3652C12.8991 2.66683 13.3334 3.1011 13.3334 3.6349V10.3654C13.3334 10.8992 12.8991 11.3335 12.3653 11.3335H12V6.30156C12 5.0327 10.9675 4.00016 9.69864 4.00016H5.33337V3.6349ZM2.66671 6.30156C2.66671 5.76776 3.10097 5.3335 3.63477 5.3335H9.69857C10.2324 5.3335 10.6667 5.76776 10.6667 6.30156V12.3654C10.6667 12.8992 10.2324 13.3335 9.69864 13.3335H3.63477C3.10097 13.3335 2.66671 12.8992 2.66671 12.3654V6.30156Z" fill="#3C76F1"/>
</svg>
