<svg width="21" height="21" viewBox="0 0 21 21" fill="none" xmlns="http://www.w3.org/2000/svg">
<g clip-path="url(#clip0_19877_138254)">
<path d="M10.4811 16.4498C10.4813 15.3357 10.8061 14.2458 11.4159 13.3135C12.0258 12.3811 12.8941 11.6467 13.9148 11.2001C14.9354 10.7535 16.0641 10.6141 17.1628 10.7989C18.2614 10.9837 19.2824 11.4847 20.1007 12.2407C20.1278 10.2823 20.1116 8.32387 20.052 6.36547C20.0195 5.01997 19.2598 3.66919 17.987 3.00172C17.333 2.656 16.6553 2.32328 15.97 2.00803C13.2619 2.88391 10.0903 4.03928 6.89152 5.46969C6.58397 5.60564 6.32049 5.82477 6.13078 6.10241C5.94108 6.38004 5.83268 6.70514 5.8178 7.04107C5.76783 8.58482 5.75239 10.1781 5.77271 11.7536C5.77434 11.7998 5.76112 11.8453 5.73498 11.8834C5.70884 11.9215 5.67116 11.9503 5.62748 11.9654C5.58379 11.9806 5.53641 11.9813 5.49228 11.9675C5.44815 11.9537 5.4096 11.9262 5.3823 11.8888C5.04376 11.4555 4.71307 11.0271 4.39024 10.6035C4.3664 10.5704 4.33099 10.5474 4.29102 10.5392C4.25106 10.531 4.20947 10.5381 4.17452 10.5592C3.92346 10.7087 3.67686 10.8562 3.43474 11.0016C3.29905 11.0828 3.13208 10.9744 3.13127 10.8074C3.12314 9.23807 3.16214 7.66466 3.24624 6.1396C3.28158 5.4965 3.68499 4.89078 4.28177 4.59585C7.34977 3.08053 10.6229 1.84269 13.4159 0.926597C12.7659 0.672285 12.1195 0.439097 11.4886 0.218097C10.638 -0.0740011 9.71414 -0.0740011 8.86345 0.218097C6.75827 0.944472 4.4593 1.89266 2.36467 3.00172C1.0923 3.66919 0.333424 5.01997 0.299705 6.36547C0.21683 9.05485 0.21683 11.7442 0.299705 14.4336C0.332205 15.7791 1.0923 17.1299 2.36467 17.7973C4.4593 18.9064 6.75827 19.8546 8.86467 20.5806C9.71536 20.8727 10.6392 20.8727 11.4899 20.5806C11.6738 20.5172 11.8594 20.4518 12.0468 20.3843C11.0382 19.3231 10.4774 17.9139 10.4811 16.4498Z" fill="#ADB0B7"/>
<path d="M16.2121 12.1006C15.3518 12.1007 14.5109 12.3559 13.7956 12.8339C13.0803 13.3119 12.5229 13.9913 12.1937 14.7861C11.8646 15.581 11.7785 16.4555 11.9465 17.2993C12.1144 18.143 12.5287 18.918 13.1371 19.5263C13.7455 20.1346 14.5205 20.5488 15.3643 20.7165C16.2081 20.8843 17.0827 20.7981 17.8775 20.4688C18.6722 20.1395 19.3515 19.5819 19.8294 18.8665C20.3073 18.1512 20.5623 17.3102 20.5622 16.4499C20.5622 15.8787 20.4496 15.3131 20.231 14.7854C20.0123 14.2577 19.6919 13.7782 19.2879 13.3743C18.884 12.9704 18.4045 12.6501 17.8767 12.4315C17.349 12.213 16.7833 12.1005 16.2121 12.1006ZM18.6931 15.73L16.0785 18.4755C16.0073 18.5503 15.9218 18.61 15.8269 18.6509C15.7321 18.6918 15.63 18.7131 15.5268 18.7135H15.5231C15.4205 18.7135 15.3189 18.6928 15.2243 18.6529C15.1298 18.6129 15.0442 18.5544 14.9726 18.4807L13.5853 17.0516C13.4436 16.9056 13.3657 16.7093 13.3688 16.5058C13.3718 16.3024 13.4556 16.1086 13.6015 15.9669C13.7475 15.8252 13.9438 15.7473 14.1473 15.7503C14.3507 15.7534 14.5445 15.8371 14.6862 15.9831L15.5186 16.8399L17.5828 14.6721C17.7247 14.5331 17.9151 14.4545 18.1138 14.453C18.3125 14.4515 18.504 14.5272 18.648 14.6641C18.7921 14.801 18.8773 14.9885 18.8859 15.187C18.8944 15.3855 18.8256 15.5796 18.6939 15.7284L18.6931 15.73Z" fill="#ADB0B7"/>
</g>
<defs>
<clipPath id="clip0_19877_138254">
<rect width="20.8" height="20.8" fill="white"/>
</clipPath>
</defs>
</svg>
