<svg width="20" height="20" viewBox="0 0 20 20" fill="none" xmlns="http://www.w3.org/2000/svg">
<path d="M15.8333 14.5833C15.8375 14.5334 15.8375 14.4832 15.8333 14.4333C15.8333 13.9912 15.6577 13.5673 15.3452 13.2548C15.0326 12.9422 14.6087 12.7666 14.1667 12.7666C13.7246 12.7666 13.3007 12.9422 12.9882 13.2548C12.6756 13.5673 12.5 13.9912 12.5 14.4333C12.4959 14.4832 12.4959 14.5334 12.5 14.5833C12.5 15.0253 12.6756 15.4492 12.9882 15.7618C13.3007 16.0743 13.7246 16.2499 14.1667 16.2499C14.6087 16.2499 15.0326 16.0743 15.3452 15.7618C15.6577 15.4492 15.8333 15.0253 15.8333 14.5833Z" fill="#1455AC"/>
<path d="M9.16667 14.5833C9.1708 14.5334 9.1708 14.4832 9.16667 14.4333C9.16667 13.9912 8.99107 13.5673 8.67851 13.2548C8.36595 12.9422 7.94203 12.7666 7.5 12.7666C7.05797 12.7666 6.63405 12.9422 6.32149 13.2548C6.00893 13.5673 5.83333 13.9912 5.83333 14.4333C5.8292 14.4832 5.8292 14.5334 5.83333 14.5833C5.83333 15.0253 6.00893 15.4492 6.32149 15.7618C6.63405 16.0743 7.05797 16.2499 7.5 16.2499C7.94203 16.2499 8.36595 16.0743 8.67851 15.7618C8.99107 15.4492 9.16667 15.0253 9.16667 14.5833Z" fill="#1455AC"/>
<path d="M2.91667 10.6249H1.66667C1.55191 10.6246 1.43936 10.6564 1.34167 10.7166C1.25677 10.7689 1.18564 10.8408 1.1342 10.9262C1.08276 11.0117 1.05252 11.1082 1.04599 11.2077C1.03946 11.3072 1.05685 11.4068 1.09669 11.4983C1.13653 11.5897 1.19767 11.6703 1.275 11.7332C1.38407 11.8264 1.52326 11.8767 1.66667 11.8749H3.75C3.91576 11.8749 4.07473 11.9408 4.19194 12.058C4.30915 12.1752 4.375 12.3341 4.375 12.4999C4.375 12.6657 4.30915 12.8246 4.19194 12.9418C4.07473 13.0591 3.91576 13.1249 3.75 13.1249H2.91667C2.75091 13.1249 2.59194 13.1908 2.47472 13.308C2.35751 13.4252 2.29167 13.5841 2.29167 13.7499C2.29167 13.9157 2.35751 14.0746 2.47472 14.1918C2.59194 14.3091 2.75091 14.3749 2.91667 14.3749H5.21667C5.25252 13.9511 5.40864 13.5463 5.66667 13.2082C5.88232 12.926 6.15957 12.6967 6.47729 12.5378C6.795 12.379 7.1448 12.2947 7.5 12.2916C8.07247 12.2894 8.62488 12.5023 9.04777 12.8881C9.47067 13.274 9.73319 13.8046 9.78333 14.3749H11.8833C11.9322 13.803 12.194 13.2703 12.6168 12.8821C13.0396 12.4939 13.5927 12.2785 14.1667 12.2785C14.7407 12.2785 15.2937 12.4939 15.7165 12.8821C16.1394 13.2703 16.4011 13.803 16.45 14.3749H17.5833C17.7783 14.3788 17.9684 14.3143 18.1207 14.1925C18.273 14.0707 18.3777 13.8993 18.4167 13.7082L18.9667 10.9582C18.9624 10.939 18.9624 10.9191 18.9667 10.8999C18.9785 10.8282 18.9785 10.755 18.9667 10.6832L17.4 6.06657C17.3146 5.82139 17.1546 5.60914 16.9423 5.45966C16.73 5.31018 16.4763 5.231 16.2167 5.23324H14.7167L14.8083 4.56657C14.8307 4.38993 14.8154 4.21055 14.7633 4.04027C14.7113 3.87 14.6237 3.71271 14.5063 3.57881C14.3889 3.44491 14.2445 3.33744 14.0825 3.2635C13.9205 3.18956 13.7447 3.15085 13.5667 3.1499H4.16667C4.00091 3.1499 3.84193 3.21575 3.72472 3.33296C3.60751 3.45017 3.54167 3.60914 3.54167 3.7749C3.54167 3.94066 3.60751 4.09963 3.72472 4.21684C3.84193 4.33405 4.00091 4.3999 4.16667 4.3999H5.20833C5.37409 4.3999 5.53306 4.46575 5.65028 4.58296C5.76749 4.70017 5.83333 4.85914 5.83333 5.0249C5.83333 5.19066 5.76749 5.34963 5.65028 5.46684C5.53306 5.58405 5.37409 5.6499 5.20833 5.6499H1.66667C1.50158 5.65206 1.34386 5.7186 1.22711 5.83535C1.11037 5.95209 1.04382 6.10981 1.04167 6.2749C1.04144 6.43284 1.10181 6.58484 1.21034 6.69958C1.31888 6.81431 1.4673 6.88303 1.625 6.89157H3.75C3.91576 6.89157 4.07473 6.95742 4.19194 7.07463C4.30915 7.19184 4.375 7.35081 4.375 7.51657C4.375 7.68233 4.30915 7.8413 4.19194 7.95851C4.07473 8.07572 3.91576 8.14157 3.75 8.14157H2.5H2.36667C2.22773 8.17191 2.1033 8.24872 2.01391 8.35932C1.92452 8.46992 1.87552 8.6077 1.875 8.7499C1.875 8.91566 1.94085 9.07463 2.05806 9.19184C2.17527 9.30905 2.33424 9.3749 2.5 9.3749H2.91667C3.08243 9.3749 3.2414 9.44075 3.35861 9.55796C3.47582 9.67517 3.54167 9.83414 3.54167 9.9999C3.54167 10.1657 3.47582 10.3246 3.35861 10.4418C3.2414 10.5591 3.08243 10.6249 2.91667 10.6249ZM14.5833 6.45824H16.1C16.1437 6.4589 16.1863 6.47279 16.222 6.49807C16.2577 6.52336 16.2849 6.55886 16.3 6.5999L17.5 10.2082H14.0833L14.5833 6.45824Z" fill="#1455AC"/>
</svg>
