<svg width="16" height="16" viewBox="0 0 16 16" fill="none" xmlns="http://www.w3.org/2000/svg">
<g clip-path="url(#clip0_19877_137901)">
<path d="M8.66674 0.665778C8.66674 0.488967 8.73698 0.319398 8.862 0.194374C8.98702 0.0693494 9.15659 -0.00088848 9.3334 -0.00088848C11.1009 0.00105258 12.7955 0.704055 14.0453 1.95388C15.2951 3.2037 15.9981 4.89826 16.0001 6.66578C16.0001 6.84259 15.9298 7.01216 15.8048 7.13718C15.6798 7.26221 15.5102 7.33245 15.3334 7.33245C15.1566 7.33245 14.987 7.26221 14.862 7.13718C14.737 7.01216 14.6667 6.84259 14.6667 6.66578C14.6651 5.25178 14.1027 3.89615 13.1029 2.8963C12.103 1.89645 10.7474 1.33403 9.3334 1.33245C9.15659 1.33245 8.98702 1.26221 8.862 1.13718C8.73698 1.01216 8.66674 0.842589 8.66674 0.665778ZM9.3334 3.99911C10.0406 3.99911 10.7189 4.28006 11.219 4.78016C11.7191 5.28026 12.0001 5.95854 12.0001 6.66578C12.0001 6.84259 12.0703 7.01216 12.1953 7.13718C12.3204 7.26221 12.4899 7.33245 12.6667 7.33245C12.8435 7.33245 13.0131 7.26221 13.1381 7.13718C13.2632 7.01216 13.3334 6.84259 13.3334 6.66578C13.3323 5.60524 12.9106 4.58844 12.1607 3.83852C11.4107 3.0886 10.3939 2.66684 9.3334 2.66578C9.15659 2.66578 8.98702 2.73602 8.862 2.86104C8.73698 2.98607 8.66674 3.15563 8.66674 3.33245C8.66674 3.50926 8.73698 3.67883 8.862 3.80385C8.98702 3.92887 9.15659 3.99911 9.3334 3.99911ZM15.3954 11.1584C15.7817 11.5459 15.9987 12.0707 15.9987 12.6178C15.9987 13.1649 15.7817 13.6897 15.3954 14.0771L14.7887 14.7764C9.32874 20.0038 -3.95793 6.72045 1.18874 1.24311L1.9554 0.576445C2.34325 0.200896 2.86336 -0.00685576 3.40321 -0.00186525C3.94306 0.00312526 4.45923 0.220457 4.84007 0.603112C4.86074 0.623778 6.09607 2.22845 6.09607 2.22845C6.46262 2.61353 6.66667 3.12506 6.6658 3.65671C6.66494 4.18836 6.45921 4.69923 6.0914 5.08311L5.3194 6.05378C5.74664 7.09185 6.37478 8.03528 7.16774 8.82984C7.96071 9.62441 8.90286 10.2545 9.94007 10.6838L10.9167 9.90711C11.3007 9.53959 11.8114 9.33411 12.3429 9.33336C12.8744 9.33262 13.3858 9.53667 13.7707 9.90311C13.7707 9.90311 15.3747 11.1378 15.3954 11.1584ZM14.4781 12.1278C14.4781 12.1278 12.8827 10.9004 12.8621 10.8798C12.7247 10.7436 12.5391 10.6672 12.3457 10.6672C12.1523 10.6672 11.9667 10.7436 11.8294 10.8798C11.8114 10.8984 10.4667 11.9698 10.4667 11.9698C10.3761 12.0419 10.2683 12.0892 10.1538 12.107C10.0394 12.1247 9.92229 12.1124 9.81407 12.0711C8.47038 11.5708 7.2499 10.7876 6.23529 9.7745C5.22069 8.76139 4.43567 7.54207 3.9334 6.19911C3.88887 6.08942 3.87435 5.96984 3.89134 5.85267C3.90833 5.7355 3.95621 5.62498 4.03007 5.53245C4.03007 5.53245 5.1014 4.18711 5.1194 4.16978C5.25558 4.03244 5.33199 3.84686 5.33199 3.65345C5.33199 3.46003 5.25558 3.27445 5.1194 3.13711C5.09874 3.11711 3.8714 1.52045 3.8714 1.52045C3.732 1.39545 3.55007 1.32851 3.3629 1.33334C3.17573 1.33818 2.9975 1.41442 2.86474 1.54645L2.09807 2.21311C-1.66326 6.73578 9.85074 17.6111 13.8141 13.8658L14.4214 13.1658C14.5637 13.034 14.6492 12.852 14.6598 12.6582C14.6704 12.4645 14.6052 12.2743 14.4781 12.1278Z" fill="#1455AC"/>
</g>
<defs>
<clipPath id="clip0_19877_137901">
<rect width="16" height="16" fill="white"/>
</clipPath>
</defs>
</svg>
