<svg width="30" height="30" viewBox="0 0 30 30" fill="none" xmlns="http://www.w3.org/2000/svg">
<path d="M24.775 5.225C22.25 2.7 16.65 2.5 15 2.5C13.35 2.5 7.75 2.7 5.225 5.225C2.7 7.75 2.5 13.35 2.5 15C2.5 16.65 2.7 22.25 5.225 24.775C7.75 27.3 13.35 27.5 15 27.5C16.65 27.5 22.25 27.3 24.775 24.775C27.3 22.25 27.5 16.65 27.5 15C27.5 13.35 27.3 7.75 24.775 5.225ZM17.5 22.5H12.5C12.1685 22.5 11.8505 22.3683 11.6161 22.1339C11.3817 21.8995 11.25 21.5815 11.25 21.25C11.25 20.9185 11.3817 20.6005 11.6161 20.3661C11.8505 20.1317 12.1685 20 12.5 20H17.5C17.8315 20 18.1495 20.1317 18.3839 20.3661C18.6183 20.6005 18.75 20.9185 18.75 21.25C18.75 21.5815 18.6183 21.8995 18.3839 22.1339C18.1495 22.3683 17.8315 22.5 17.5 22.5ZM19.6375 14.6375L15.8875 18.3875C15.7713 18.5047 15.633 18.5977 15.4807 18.6611C15.3284 18.7246 15.165 18.7572 15 18.7572C14.835 18.7572 14.6716 18.7246 14.5193 18.6611C14.367 18.5977 14.2287 18.5047 14.1125 18.3875L10.3625 14.6375C10.1271 14.4021 9.99489 14.0829 9.99489 13.75C9.99489 13.4171 10.1271 13.0979 10.3625 12.8625C10.5979 12.6271 10.9171 12.4949 11.25 12.4949C11.5829 12.4949 11.9021 12.6271 12.1375 12.8625L13.75 14.4875V8.75C13.75 8.41848 13.8817 8.10054 14.1161 7.86612C14.3505 7.6317 14.6685 7.5 15 7.5C15.3315 7.5 15.6495 7.6317 15.8839 7.86612C16.1183 8.10054 16.25 8.41848 16.25 8.75V14.4875L17.8625 12.8625C18.0979 12.6271 18.4171 12.4949 18.75 12.4949C19.0829 12.4949 19.4021 12.6271 19.6375 12.8625C19.8729 13.0979 20.0051 13.4171 20.0051 13.75C20.0051 14.0829 19.8729 14.4021 19.6375 14.6375Z" fill="#1455AC"/>
</svg>
