<svg width="12" height="12" viewBox="0 0 12 12" fill="none" xmlns="http://www.w3.org/2000/svg">
<g clip-path="url(#clip0_19877_139421)">
<path d="M11.501 10.7499C11.501 11.1644 11.165 11.4999 10.751 11.4999H1.25098C0.836477 11.4999 0.500977 11.1644 0.500977 10.7499C0.500977 10.3354 0.836477 9.99985 1.25098 9.99985H10.751C11.165 9.99985 11.501 10.3354 11.501 10.7499ZM5.73148 9.42085C5.89598 9.52585 6.10598 9.52585 6.27048 9.42085C7.90898 8.37235 9.30498 6.97685 10.4195 5.27335C10.5865 5.03035 10.484 4.66685 10.2145 4.54735C10.1585 4.52085 9.67898 4.30885 8.47848 4.17235C8.49248 3.85335 8.50098 3.52585 8.50098 3.24985C8.50098 2.46135 8.43448 1.65935 8.37898 1.12585C8.35648 0.907352 8.19398 0.729852 7.97898 0.687352C6.72148 0.438852 5.27898 0.438852 4.02298 0.687352C3.80748 0.729852 3.64548 0.907852 3.62248 1.12585C3.56698 1.65935 3.50048 2.46135 3.50048 3.24985C3.50048 3.52585 3.50898 3.85335 3.52298 4.17235C2.32298 4.30885 1.84348 4.52085 1.78698 4.54735C1.51748 4.66685 1.41448 5.03035 1.58148 5.27335C2.69548 6.97685 4.09148 8.37235 5.73048 9.42085H5.73148Z" fill="#3C76F1"/>
</g>
<defs>
<clipPath id="clip0_19877_139421">
<rect width="12" height="12" fill="white"/>
</clipPath>
</defs>
</svg>
