<svg width="16" height="16" viewBox="0 0 16 16" fill="none" xmlns="http://www.w3.org/2000/svg">
<g clip-path="url(#clip0_17754_46635)">
<path d="M6.59515 12.0694C7.10596 11.5932 7.18463 10.8474 6.77087 10.4035C6.3571 9.95967 5.60759 9.98586 5.09678 10.462C4.58597 10.9382 4.5073 11.684 4.92106 12.1279C5.33483 12.5718 6.08434 12.5456 6.59515 12.0694Z" fill="white"/>
<path d="M13.352 12.0694C13.8628 11.5932 13.9415 10.8474 13.5277 10.4035C13.1139 9.95967 12.3644 9.98586 11.8536 10.462C11.3428 10.9382 11.2641 11.684 11.6779 12.1279C12.0917 12.5718 12.8412 12.5456 13.352 12.0694Z" fill="white"/>
<path d="M1.23613 6.24228C1.23613 5.94775 0.997235 5.70898 0.702539 5.70898C0.407843 5.70898 0.168945 5.94775 0.168945 6.24228C0.168945 6.53681 0.407843 6.77557 0.702539 6.77557C0.997235 6.77557 1.23613 6.53681 1.23613 6.24228Z" fill="white"/>
<path d="M10.8272 11.1541C11.0169 10.2166 11.9025 9.47156 12.8544 9.47156C13.7709 9.47156 14.4316 10.1625 14.4134 11.0509C15.4047 11.0769 15.6806 9.77156 15.6806 9.77156C15.7641 9.40656 15.8888 8.695 15.9931 7.99656C16.0273 7.78092 16.001 7.56002 15.9172 7.35844C15.6581 6.75357 15.3449 6.1733 14.9816 5.62469C14.6378 5.11187 14.0612 4.80813 13.4031 4.79719C13.0106 4.79094 12.6253 4.78719 12.3344 4.78719L12.3319 4.78469C12.2944 4.15719 11.8369 3.67656 11.1947 3.61906C10.7769 3.58187 9.12187 3.55469 8.3275 3.55469C8.01187 3.55469 7.55906 3.55906 7.10094 3.56656V3.56469H7.09719H1.58906C1.51896 3.56465 1.44953 3.57842 1.38476 3.60523C1.31998 3.63204 1.26112 3.67136 1.21155 3.72093C1.16198 3.7705 1.12267 3.82936 1.09586 3.89413C1.06905 3.95891 1.05527 4.02833 1.05531 4.09844V4.10094C1.05531 4.24183 1.11128 4.37696 1.21091 4.47659C1.31054 4.57622 1.44567 4.63219 1.58656 4.63219H2.69687C2.83057 4.64204 2.9556 4.70208 3.04688 4.80026C3.13816 4.89844 3.18895 5.0275 3.18906 5.16156V5.16437C3.18927 5.23455 3.17563 5.30407 3.14894 5.36897C3.12225 5.43386 3.08302 5.49286 3.0335 5.54258C2.98399 5.5923 2.92515 5.63177 2.86036 5.65873C2.79558 5.68569 2.72611 5.69961 2.65594 5.69969H2.08656C1.94509 5.69969 1.8094 5.75589 1.70937 5.85593C1.60933 5.95597 1.55313 6.09165 1.55313 6.23312C1.55308 6.3032 1.56685 6.3726 1.59364 6.43736C1.62043 6.50211 1.65972 6.56096 1.70925 6.61052C1.75879 6.66009 1.81761 6.69941 1.88235 6.72624C1.94709 6.75307 2.01648 6.76687 2.08656 6.76687H2.65594C2.7975 6.76687 2.93326 6.82311 3.03336 6.92321C3.13345 7.0233 3.18969 7.15907 3.18969 7.30062C3.18969 7.44218 3.13345 7.57795 3.03336 7.67804C2.93326 7.77814 2.7975 7.83437 2.65594 7.83437H0.525937C0.384432 7.83437 0.248718 7.89057 0.14863 7.9906C0.0485411 8.09063 -0.00772965 8.22631 -0.0078125 8.36781C-0.0078125 8.50937 0.0484217 8.64513 0.148519 8.74523C0.248617 8.84533 0.384378 8.90156 0.525937 8.90156H2.65594C2.7975 8.90156 2.93326 8.9578 3.03336 9.05789C3.13345 9.15799 3.18969 9.29375 3.18969 9.43531C3.18952 9.57676 3.13321 9.71236 3.03313 9.81233C2.93306 9.91229 2.79739 9.96844 2.65594 9.96844H1.99719C1.85571 9.96844 1.72003 10.0246 1.61999 10.1247C1.51995 10.2247 1.46375 10.3604 1.46375 10.5019C1.46375 10.6434 1.51994 10.7791 1.61997 10.8792C1.72 10.9793 1.85568 11.0355 1.99719 11.0356L4.09906 11.0341L4.27375 10.5987C4.63156 9.93875 5.34344 9.47125 6.09719 9.47125C7.04938 9.47125 7.72563 10.2169 7.65125 11.155H10.8269M5.53313 5.94812H4.81687C4.8162 5.94818 4.81556 5.94845 4.81505 5.9489C4.81454 5.94936 4.8142 5.94996 4.81406 5.95062L4.74813 6.41937C4.74803 6.41975 4.74802 6.42014 4.7481 6.42052C4.74818 6.4209 4.74835 6.42126 4.74859 6.42156C4.74884 6.42187 4.74915 6.42211 4.7495 6.42227C4.74985 6.42243 4.75024 6.42251 4.75063 6.4225H5.28375C5.30992 6.42176 5.33592 6.42686 5.35987 6.43744C5.38381 6.44803 5.40509 6.46382 5.42216 6.48367C5.43923 6.50352 5.45165 6.52693 5.45852 6.55219C5.46539 6.57745 5.46654 6.60393 5.46187 6.62969C5.45274 6.68631 5.42415 6.73797 5.38103 6.77579C5.33791 6.81361 5.28295 6.83521 5.22563 6.83687H4.69187C4.69123 6.83686 4.69059 6.83707 4.69008 6.83747C4.68957 6.83787 4.68921 6.83843 4.68906 6.83906L4.59344 7.52C4.5843 7.57662 4.55571 7.62829 4.51259 7.6661C4.46947 7.70392 4.41452 7.72552 4.35719 7.72719C4.33103 7.72794 4.30503 7.72284 4.2811 7.71226C4.25716 7.70167 4.2359 7.68587 4.21885 7.66601C4.20181 7.64615 4.18942 7.62274 4.18259 7.59747C4.17576 7.57221 4.17466 7.54574 4.17938 7.52L4.4275 5.75375C4.43733 5.69395 4.46765 5.63943 4.51325 5.59952C4.55886 5.55962 4.61693 5.53681 4.6775 5.535H5.59094C5.6171 5.53425 5.64309 5.53935 5.66703 5.54993C5.69096 5.56052 5.71223 5.57631 5.72927 5.59617C5.74632 5.61603 5.7587 5.63945 5.76554 5.66471C5.77237 5.68998 5.77346 5.71645 5.76875 5.74219C5.75949 5.79853 5.73091 5.84989 5.68792 5.88747C5.64493 5.92504 5.5902 5.94649 5.53313 5.94812ZM7.4475 5.67562C7.52191 5.74164 7.57427 5.8289 7.5975 5.92562C7.62348 6.0352 7.62773 6.1488 7.61 6.26C7.58827 6.43304 7.51746 6.59624 7.40594 6.73031C7.33784 6.81083 7.25133 6.87376 7.15375 6.91375C7.15331 6.91421 7.15307 6.91483 7.15307 6.91547C7.15307 6.91611 7.15331 6.91672 7.15375 6.91719L7.33125 7.42937C7.37906 7.56687 7.25625 7.72719 7.10344 7.72719H7.09344C7.05636 7.72828 7.01991 7.71754 6.98934 7.69652C6.95878 7.67551 6.9357 7.64532 6.92344 7.61031L6.70875 6.98531C6.70844 6.98484 6.70803 6.98445 6.70754 6.98418C6.70705 6.98391 6.7065 6.98376 6.70594 6.98375H6.24969C6.24905 6.98378 6.24844 6.98401 6.24794 6.9844C6.24744 6.98479 6.24707 6.98533 6.24688 6.98594L6.17188 7.51969C6.16274 7.57631 6.13415 7.62797 6.09103 7.66579C6.04791 7.70361 5.99295 7.72521 5.93563 7.72687C5.90947 7.72763 5.88347 7.72253 5.85954 7.71194C5.8356 7.70136 5.81433 7.68556 5.79729 7.6657C5.78025 7.64584 5.76786 7.62242 5.76103 7.59716C5.7542 7.5719 5.7531 7.54543 5.75781 7.51969L6.00594 5.75344C6.01577 5.69364 6.04608 5.63912 6.09169 5.59921C6.1373 5.5593 6.19536 5.53649 6.25594 5.53469H6.96219C6.96219 5.53469 7.27219 5.525 7.4475 5.67562ZM9.39125 5.7275C9.38276 5.78039 9.35607 5.82865 9.31579 5.86397C9.27551 5.89928 9.22417 5.91943 9.17062 5.92094H8.34906C8.34843 5.92097 8.34782 5.9212 8.34731 5.92159C8.34681 5.92198 8.34644 5.92252 8.34625 5.92312L8.28094 6.38687C8.28084 6.38725 8.28083 6.38764 8.28091 6.38802C8.28099 6.3884 8.28116 6.38876 8.28141 6.38906C8.28165 6.38937 8.28196 6.38961 8.28231 6.38977C8.28266 6.38993 8.28305 6.39001 8.28344 6.39H8.92156C8.946 6.38928 8.97029 6.39402 8.99266 6.4039C9.01502 6.41377 9.0349 6.42851 9.05084 6.44705C9.06677 6.4656 9.07836 6.48746 9.08476 6.51106C9.09116 6.53466 9.0922 6.55939 9.08781 6.58344C9.07932 6.63633 9.05263 6.68459 9.01235 6.71991C8.97207 6.75522 8.92073 6.77537 8.86719 6.77687H8.22875C8.22811 6.77691 8.2275 6.77714 8.227 6.77753C8.2265 6.77792 8.22613 6.77845 8.22594 6.77906L8.1475 7.33719C8.1475 7.33796 8.14778 7.33872 8.1483 7.33929C8.14882 7.33987 8.14954 7.34023 8.15031 7.34031H8.97125C8.99569 7.33959 9.01998 7.34434 9.04235 7.35421C9.06471 7.36408 9.08459 7.37883 9.10052 7.39737C9.11646 7.41591 9.12805 7.43778 9.13445 7.46137C9.14085 7.48497 9.14189 7.5097 9.1375 7.53375C9.12901 7.58664 9.10232 7.6349 9.06204 7.67022C9.02176 7.70553 8.97042 7.72568 8.91687 7.72719H7.89813C7.87064 7.72757 7.8434 7.72191 7.81835 7.7106C7.79329 7.69928 7.77103 7.6826 7.75314 7.66173C7.73525 7.64086 7.72217 7.61631 7.71482 7.58981C7.70747 7.56332 7.70604 7.53554 7.71063 7.50844L7.95719 5.75469C7.96702 5.69489 7.99733 5.64037 8.04294 5.60046C8.08855 5.56055 8.14661 5.53774 8.20719 5.53594H9.22563C9.24982 5.53536 9.27385 5.54015 9.29598 5.54996C9.31811 5.55976 9.33779 5.57434 9.35362 5.59265C9.36945 5.61096 9.38104 5.63255 9.38754 5.65586C9.39405 5.67917 9.39531 5.70364 9.39125 5.7275ZM11.0978 5.7275C11.0893 5.78039 11.0626 5.82865 11.0224 5.86397C10.9821 5.89928 10.9307 5.91943 10.8772 5.92094H10.0556C10.055 5.92097 10.0544 5.9212 10.0539 5.92159C10.0534 5.92198 10.053 5.92252 10.0528 5.92312L9.98781 6.38687C9.98771 6.38725 9.98771 6.38764 9.98779 6.38802C9.98787 6.3884 9.98804 6.38876 9.98828 6.38906C9.98852 6.38937 9.98883 6.38961 9.98919 6.38977C9.98954 6.38993 9.98992 6.39001 9.99031 6.39H10.6284C10.6529 6.38928 10.6772 6.39402 10.6995 6.4039C10.7219 6.41377 10.7418 6.42851 10.7577 6.44705C10.7736 6.4656 10.7852 6.48746 10.7916 6.51106C10.798 6.53466 10.7991 6.55939 10.7947 6.58344C10.7862 6.63633 10.7595 6.68459 10.7192 6.71991C10.6789 6.75522 10.6276 6.77537 10.5741 6.77687H9.93531C9.93468 6.77691 9.93407 6.77714 9.93356 6.77753C9.93306 6.77792 9.93269 6.77845 9.9325 6.77906L9.85406 7.33719C9.85406 7.33796 9.85434 7.33872 9.85486 7.33929C9.85538 7.33987 9.8561 7.34023 9.85687 7.34031H10.6778C10.7023 7.33959 10.7265 7.34434 10.7489 7.35421C10.7713 7.36408 10.7912 7.37883 10.8071 7.39737C10.823 7.41591 10.8346 7.43778 10.841 7.46137C10.8474 7.48497 10.8484 7.5097 10.8441 7.53375C10.8356 7.58664 10.8089 7.6349 10.7686 7.67022C10.7283 7.70553 10.677 7.72568 10.6234 7.72719H9.60469C9.5772 7.72757 9.54996 7.72191 9.52491 7.7106C9.49985 7.69928 9.47759 7.6826 9.4597 7.66173C9.44181 7.64086 9.42873 7.61631 9.42138 7.58981C9.41403 7.56332 9.4126 7.53554 9.41719 7.50844L9.66375 5.75469C9.67358 5.69489 9.7039 5.64037 9.7495 5.60046C9.79511 5.56055 9.85317 5.53774 9.91375 5.53594H10.9322C10.9564 5.53536 10.9804 5.54015 11.0025 5.54996C11.0247 5.55976 11.0444 5.57434 11.0602 5.59265C11.076 5.61096 11.0876 5.63255 11.0941 5.65586C11.1006 5.67917 11.1019 5.70364 11.0978 5.7275ZM12.2853 5.52719C12.5644 5.52719 12.9256 5.53094 13.2881 5.53687C13.7275 5.54406 14.1119 5.74594 14.3425 6.09031C14.5888 6.46169 14.8103 6.84899 15.0053 7.24969C15.1084 7.45969 14.9187 7.73312 14.6703 7.73312H12.0062L12.2853 5.52719Z" fill="white"/>
<path d="M6.79551 6.60001H6.30176L6.39551 5.92414H6.88895C6.88895 5.92414 7.25113 5.90071 7.19176 6.26207C7.19332 6.26207 7.15176 6.60001 6.79551 6.60001Z" fill="white"/>
</g>
<defs>
<clipPath id="clip0_17754_46635">
<rect width="16" height="16" fill="white"/>
</clipPath>
</defs>
</svg>
