<svg width="16" height="16" viewBox="0 0 16 16" fill="none" xmlns="http://www.w3.org/2000/svg">
<path d="M8 0C6.41775 0 4.87104 0.469192 3.55544 1.34824C2.23985 2.22729 1.21447 3.47672 0.608967 4.93853C0.00346629 6.40034 -0.15496 8.00887 0.153721 9.56072C0.462403 11.1126 1.22433 12.538 2.34315 13.6569C3.46197 14.7757 4.88743 15.5376 6.43928 15.8463C7.99113 16.155 9.59966 15.9965 11.0615 15.391C12.5233 14.7855 13.7727 13.7602 14.6518 12.4446C15.5308 11.129 16 9.58225 16 8C16 5.87827 15.1571 3.84344 13.6569 2.34315C12.1566 0.842855 10.1217 0 8 0ZM10.6243 13.1533H5.37567C5.19886 13.1533 5.02929 13.0831 4.90427 12.9581C4.77924 12.833 4.709 12.6635 4.709 12.4867C4.709 12.3099 4.77924 12.1403 4.90427 12.0153C5.02929 11.8902 5.19886 11.82 5.37567 11.82H10.6243C10.8011 11.82 10.9707 11.8902 11.0957 12.0153C11.2208 12.1403 11.291 12.3099 11.291 12.4867C11.291 12.6635 11.2208 12.833 11.0957 12.9581C10.9707 13.0831 10.8011 13.1533 10.6243 13.1533ZM11.0957 8.13867L8.46934 10.7667C8.34432 10.8916 8.17478 10.9619 7.998 10.9619C7.82123 10.9619 7.65169 10.8916 7.52667 10.7667L4.90434 8.14467C4.77907 8.01966 4.70858 7.85001 4.7084 7.67304C4.70821 7.49607 4.77833 7.32627 4.90334 7.201C5.02834 7.07573 5.19799 7.00525 5.37496 7.00506C5.55194 7.00487 5.72173 7.075 5.847 7.2L7.33334 8.68633V2.78833C7.33334 2.61152 7.40358 2.44195 7.5286 2.31693C7.65362 2.1919 7.82319 2.12167 8 2.12167C8.17682 2.12167 8.34638 2.1919 8.47141 2.31693C8.59643 2.44195 8.66667 2.61152 8.66667 2.78833V8.68233L10.153 7.196C10.2787 7.07456 10.4471 7.00737 10.6219 7.00888C10.7967 7.0104 10.9639 7.08052 11.0876 7.20412C11.2112 7.32773 11.2813 7.49494 11.2828 7.66973C11.2843 7.84453 11.2171 8.01293 11.0957 8.13867Z" fill="#1455AC"/>
</svg>
