<svg width="21" height="21" viewBox="0 0 21 21" fill="none" xmlns="http://www.w3.org/2000/svg">
<g clip-path="url(#clip0_19877_138206)">
<path d="M7.77804 4.5708C7.77804 3.85812 7.19828 3.27832 6.4856 3.27832C5.77292 3.27832 5.19312 3.85812 5.19312 4.5708C5.19312 5.28349 5.77292 5.86329 6.4856 5.86329C7.19828 5.86329 7.77804 5.28349 7.77804 4.5708Z" fill="#1455AC"/>
<path d="M8.73698 11.4254H7.21147C8.50177 10.2654 11.0609 7.58489 11.0609 4.57039C11.0609 2.04352 9.01254 0 6.48567 0C3.95883 0 1.9104 2.04352 1.9104 4.57039C1.9104 7.58489 4.46957 10.2654 5.7599 11.4254H2.61191V12.6442H8.53162C8.55697 12.2277 8.626 11.8196 8.73698 11.4254ZM3.97439 4.57039C3.97439 3.18569 5.10093 2.05916 6.48563 2.05916C7.87033 2.05916 8.99682 3.18569 8.99682 4.57039C8.99682 5.9551 7.87033 7.08163 6.48563 7.08163C5.10093 7.08163 3.97439 5.9551 3.97439 4.57039Z" fill="#1455AC"/>
<path d="M14.3142 14.2959C15.028 14.2959 15.6067 13.7172 15.6067 13.0034C15.6067 12.2896 15.028 11.7109 14.3142 11.7109C13.6004 11.7109 13.0217 12.2896 13.0217 13.0034C13.0217 13.7172 13.6004 14.2959 14.3142 14.2959Z" fill="#1455AC"/>
<path d="M15.3403 19.5811C16.6891 18.3062 18.8894 15.7983 18.8894 13.003C18.8894 10.4761 16.8411 8.43262 14.3142 8.43262C11.7874 8.43262 9.73893 10.4761 9.73893 13.003C9.73893 15.7983 11.9393 18.3062 13.2882 19.5811H7.33019C6.54194 19.5811 5.90063 18.9398 5.90063 18.1515C5.90063 17.3632 6.54194 16.7219 7.33019 16.7219H9.51902C9.46239 16.6143 9.08624 15.8011 8.97899 15.5032H7.33019C5.86992 15.5032 4.68188 16.6912 4.68188 18.1515C4.68188 19.6118 5.86992 20.7998 7.33019 20.7998H18.188V19.5811H15.3403ZM14.3142 10.4918C15.6989 10.4918 16.8254 11.6183 16.8254 13.003C16.8254 14.3877 15.6989 15.5142 14.3142 15.5142C12.9295 15.5142 11.803 14.3877 11.803 13.003C11.803 11.6183 12.9295 10.4918 14.3142 10.4918Z" fill="#1455AC"/>
</g>
<defs>
<clipPath id="clip0_19877_138206">
<rect width="20.8" height="20.8" fill="white"/>
</clipPath>
</defs>
</svg>
