<svg width="21" height="21" viewBox="0 0 21 21" fill="none" xmlns="http://www.w3.org/2000/svg">
<path d="M18.7328 17.3592L17.1098 5.99496C17.0447 5.5491 16.8218 5.14139 16.4816 4.84595C16.1414 4.5505 15.7064 4.38693 15.2559 4.38497H13.7337L13.428 3.46776C12.463 0.578526 8.33769 0.575767 7.3718 3.4678L7.06607 4.38497H5.5439C5.09338 4.38716 4.65858 4.55081 4.31842 4.84621C3.97826 5.14162 3.75528 5.54919 3.68997 5.99496L2.06698 17.3592C2.03063 17.6247 2.05132 17.8949 2.12766 18.1517C2.204 18.4086 2.33424 18.6462 2.5097 18.8488C2.68515 19.0513 2.90178 19.2141 3.14514 19.3263C3.38849 19.4384 3.65297 19.4974 3.92093 19.4993L16.8789 19.4993C17.1468 19.4975 17.4113 19.4385 17.6546 19.3263C17.898 19.2141 18.1146 19.0513 18.2901 18.8487C18.4655 18.6462 18.5958 18.4086 18.6721 18.1517C18.7484 17.8949 18.7691 17.6247 18.7328 17.3592ZM7.98978 3.67267C8.74045 1.37597 12.0597 1.37647 12.81 3.67271L13.0474 4.38497H7.75234L7.98978 3.67267ZM10.3999 16.4095C9.23588 16.4077 8.12006 15.9445 7.29699 15.1215C6.47392 14.2984 6.01075 13.1826 6.009 12.0186C6.25495 6.1927 14.5457 6.19441 14.7907 12.0186C14.789 13.1826 14.3258 14.2984 13.5028 15.1215C12.6797 15.9445 11.5639 16.4077 10.3999 16.4095Z" fill="#1455AC"/>
<path d="M10.3998 8.27832C9.40817 8.27956 8.45751 8.67404 7.75632 9.37523C7.05513 10.0764 6.66066 11.0271 6.65942 12.0187C6.86543 16.9807 13.9349 16.9793 14.1402 12.0187C14.1389 11.027 13.7445 10.0764 13.0433 9.37521C12.3421 8.67403 11.3914 8.27956 10.3998 8.27832ZM12.6635 11.1177L10.4031 13.3782C10.3419 13.4385 10.2596 13.4722 10.1737 13.4722C10.0879 13.4722 10.0056 13.4385 9.94444 13.3782L8.81583 12.2496C8.75489 12.1882 8.72069 12.1052 8.72069 12.0187C8.72069 11.9322 8.75489 11.8492 8.81583 11.7878C8.84592 11.7576 8.88166 11.7337 8.921 11.7174C8.96035 11.701 9.00253 11.6926 9.04513 11.6926C9.08773 11.6926 9.12991 11.701 9.16925 11.7174C9.2086 11.7337 9.24434 11.7576 9.27443 11.7878L10.1754 12.6887L12.2017 10.6592C12.2629 10.5999 12.3449 10.5671 12.4301 10.5676C12.5153 10.5682 12.5969 10.6021 12.6573 10.6621C12.7178 10.7222 12.7523 10.8035 12.7535 10.8887C12.7546 10.9739 12.7223 11.0561 12.6635 11.1177Z" fill="#1455AC"/>
</svg>
