<svg width="21" height="21" viewBox="0 0 21 21" fill="none" xmlns="http://www.w3.org/2000/svg">
<g clip-path="url(#clip0_19877_138147)">
<path d="M13.65 1.3H12.2382C11.9704 0.5434 11.2476 0 10.4 0C9.5524 0 8.8296 0.5434 8.5605 1.3H7.15C6.7912 1.3 6.5 1.5912 6.5 1.95V4.55C6.5 4.9088 6.7912 5.2 7.15 5.2H13.65C14.0088 5.2 14.3 4.9088 14.3 4.55V1.95C14.3 1.5912 14.0088 1.3 13.65 1.3Z" fill="#1455AC"/>
<path d="M16.9001 2.59961H15.6001V4.54961C15.6001 5.62471 14.7252 6.49961 13.6501 6.49961H7.1501C6.075 6.49961 5.2001 5.62471 5.2001 4.54961V2.59961H3.9001C3.1838 2.59961 2.6001 3.18331 2.6001 3.89961V19.4996C2.6001 20.2289 3.1708 20.7996 3.9001 20.7996H16.9001C17.6294 20.7996 18.2001 20.2289 18.2001 19.4996V3.89961C18.2001 3.17031 17.6294 2.59961 16.9001 2.59961ZM10.2103 14.1098L7.6103 16.7098C7.4829 16.8359 7.3165 16.8996 7.1501 16.8996C6.9837 16.8996 6.8173 16.8359 6.6899 16.7098L5.3899 15.4098C5.1364 15.1563 5.1364 14.7442 5.3899 14.4907C5.6434 14.2372 6.0555 14.2372 6.309 14.4907L7.1501 15.3305L9.2899 13.1907C9.5434 12.9372 9.9555 12.9372 10.209 13.1907C10.4625 13.4442 10.4638 13.855 10.2103 14.1098ZM10.2103 8.90981L7.6103 11.5098C7.4829 11.6359 7.3165 11.6996 7.1501 11.6996C6.9837 11.6996 6.8173 11.6359 6.6899 11.5098L5.3899 10.2098C5.1364 9.95631 5.1364 9.54421 5.3899 9.29071C5.6434 9.03721 6.0555 9.03721 6.309 9.29071L7.1501 10.1305L9.2899 7.99071C9.5434 7.73721 9.9555 7.73721 10.209 7.99071C10.4625 8.24421 10.4638 8.65501 10.2103 8.90981ZM14.9501 15.5996H12.3501C11.9913 15.5996 11.7001 15.3084 11.7001 14.9496C11.7001 14.5908 11.9913 14.2996 12.3501 14.2996H14.9501C15.3089 14.2996 15.6001 14.5908 15.6001 14.9496C15.6001 15.3084 15.3089 15.5996 14.9501 15.5996ZM14.9501 10.3996H12.3501C11.9913 10.3996 11.7001 10.1084 11.7001 9.74961C11.7001 9.39081 11.9913 9.09961 12.3501 9.09961H14.9501C15.3089 9.09961 15.6001 9.39081 15.6001 9.74961C15.6001 10.1084 15.3089 10.3996 14.9501 10.3996Z" fill="#1455AC"/>
</g>
<defs>
<clipPath id="clip0_19877_138147">
<rect width="20.8" height="20.8" fill="white"/>
</clipPath>
</defs>
</svg>
