<svg width="15" height="16" viewBox="0 0 15 16" fill="none" xmlns="http://www.w3.org/2000/svg">
<path d="M12.732 3.44621C11.5778 2.25234 10.0841 1.49318 8.46294 1.26224L8.925 0.80018C9.10806 0.617117 9.10806 0.320336 8.925 0.137273C8.74197 -0.0457578 8.44516 -0.0457578 8.26209 0.137273L7.075 1.32434C6.89194 1.50737 6.89194 1.80418 7.075 1.98724L8.26206 3.1743C8.35359 3.26584 8.47356 3.31162 8.5935 3.31162C8.71344 3.31162 8.83344 3.26584 8.92494 3.1743C9.108 2.99127 9.108 2.69446 8.92494 2.5114L8.65947 2.24593C9.94738 2.49796 11.1286 3.13652 12.0579 4.09777C13.2299 5.31015 13.8754 6.90677 13.8754 8.59349C13.8754 12.1605 10.9734 15.0625 7.40647 15.0625C3.8395 15.0625 0.9375 12.1605 0.9375 8.59352C0.9375 7.23243 1.35522 5.93043 2.14553 4.8283C2.91944 3.74902 3.98631 2.94368 5.23091 2.49937C5.47472 2.4123 5.60178 2.14412 5.51475 1.90027C5.42772 1.65646 5.15947 1.5294 4.91566 1.61643C3.49056 2.12521 2.26922 3.04696 1.38363 4.28199C0.478438 5.54437 0 7.03527 0 8.59355C0 10.5719 0.770406 12.4318 2.16931 13.8307C3.56822 15.2295 5.42813 16 7.40647 16C9.38481 16 11.2447 15.2296 12.6436 13.8307C14.0425 12.4318 14.8129 10.5719 14.8129 8.59352C14.8129 6.66233 14.0739 4.8343 12.732 3.44621Z" fill="#FF4040"/>
<path d="M2.59033 8.5935C2.59033 11.2491 4.75083 13.4096 7.40646 13.4096C10.0621 13.4096 12.2226 11.2491 12.2226 8.5935C12.2226 5.93791 10.0621 3.77734 7.40646 3.77734C4.7508 3.77734 2.59033 5.93787 2.59033 8.5935ZM7.69421 9.01072C7.01946 8.77219 6.62852 8.58419 6.34489 8.36172C5.99583 8.08794 5.83605 7.61509 5.92786 7.12775C6.02749 6.59906 6.39618 6.17819 6.89008 6.02941C6.89693 6.02734 6.90364 6.02569 6.91046 6.02369V5.83494C6.91046 5.57606 7.12033 5.36619 7.37921 5.36619C7.63808 5.36619 7.84796 5.57606 7.84796 5.83494V5.99384C8.17524 6.0705 8.40368 6.22009 8.49602 6.28912C8.70336 6.44416 8.7458 6.73787 8.5908 6.94525C8.43577 7.15263 8.14211 7.195 7.93468 7.04003C7.83543 6.96584 7.56149 6.80622 7.16049 6.92703C6.92358 6.99841 6.8623 7.23156 6.84914 7.30134C6.82318 7.43916 6.85302 7.56888 6.92343 7.62406C7.16864 7.81634 7.60858 7.98612 8.00661 8.12681C8.73474 8.38419 9.13961 9.05872 9.01411 9.80525C8.95249 10.1718 8.76811 10.5119 8.49486 10.7629C8.30696 10.9356 8.08799 11.0583 7.84796 11.1276V11.352C7.84796 11.6109 7.63808 11.8207 7.37921 11.8207C7.12033 11.8207 6.91046 11.6109 6.91046 11.352V11.1737C6.59861 11.137 6.33839 11.041 5.98843 10.812C5.77177 10.6703 5.71105 10.3798 5.85277 10.1631C5.99449 9.94644 6.28505 9.88575 6.50168 10.0275C6.82614 10.2398 6.94883 10.2593 7.37608 10.2563C7.79674 10.2535 8.0408 9.93994 8.08958 9.64981C8.11346 9.50812 8.12261 9.16216 7.69421 9.01072Z" fill="#FF4040"/>
</svg>
