<svg width="14" height="14" viewBox="0 0 14 14" fill="none" xmlns="http://www.w3.org/2000/svg">
<g clip-path="url(#clip0_22505_73381)">
<path d="M7 0C3.13416 0 0 3.13416 0 7C0 10.8658 3.13416 14 7 14C10.8658 14 14 10.8658 14 7C14 3.13416 10.8658 0 7 0ZM9.0107 9.75967C8.70535 10.1313 8.30782 10.3819 7.84403 10.5086C7.64239 10.5634 7.55021 10.67 7.56173 10.8802C7.57037 11.0877 7.56173 11.2922 7.55885 11.4996C7.55885 11.684 7.46379 11.7819 7.2823 11.7877C7.1642 11.7905 7.04609 11.7934 6.92798 11.7934C6.82428 11.7934 6.72058 11.7934 6.61687 11.7905C6.42099 11.7877 6.32881 11.6753 6.32881 11.4852C6.32593 11.3354 6.32593 11.1827 6.32593 11.0329C6.32305 10.6988 6.31152 10.6872 5.99177 10.6354C5.58272 10.5691 5.17942 10.477 4.80494 10.2955C4.51111 10.1514 4.47942 10.0794 4.56296 9.76831C4.62634 9.53786 4.68971 9.30741 4.76173 9.07984C4.81358 8.91276 4.86255 8.83786 4.95185 8.83786C5.0037 8.83786 5.06996 8.86379 5.15926 8.90988C5.57407 9.12593 6.01481 9.24691 6.4786 9.30453C6.55638 9.31317 6.63416 9.31893 6.71193 9.31893C6.92798 9.31893 7.13827 9.2786 7.3428 9.1893C7.85844 8.96461 7.93909 8.36831 7.50412 8.01111C7.3572 7.89012 7.18724 7.80082 7.01152 7.72305C6.55926 7.52428 6.08971 7.37449 5.66337 7.11811C4.97202 6.70329 4.53416 6.1358 4.58601 5.29465C4.64362 4.34403 5.1823 3.75062 6.05514 3.43374C6.41523 3.30412 6.41811 3.307 6.41811 2.93251C6.41811 2.80576 6.41523 2.67901 6.42099 2.54938C6.42963 2.26708 6.47572 2.21811 6.75802 2.20946C6.78971 2.20946 6.82428 2.20946 6.85597 2.20946C6.9107 2.20946 6.96543 2.20946 7.02016 2.20946C7.04321 2.20946 7.06626 2.20946 7.08642 2.20946C7.62222 2.20946 7.62222 2.23251 7.6251 2.81152C7.62798 3.23786 7.62798 3.23786 8.05144 3.30412C8.37696 3.35597 8.68518 3.45103 8.98477 3.58354C9.14897 3.65556 9.21235 3.77078 9.16049 3.9465C9.0856 4.20576 9.01358 4.4679 8.93292 4.72428C8.88107 4.87984 8.8321 4.95185 8.73992 4.95185C8.68807 4.95185 8.62469 4.93169 8.54403 4.89136C8.12922 4.68971 7.69424 4.59177 7.23909 4.59177C7.18148 4.59177 7.12099 4.59465 7.06337 4.59753C6.92798 4.60617 6.79547 4.62346 6.66872 4.67819C6.21934 4.87407 6.14733 5.36955 6.53045 5.6749C6.72346 5.83045 6.94527 5.93992 7.17284 6.03498C7.57037 6.19918 7.9679 6.35761 8.34527 6.56502C9.5321 7.22757 9.85473 8.73416 9.0107 9.75967Z" fill="#FF4040"/>
</g>
<defs>
<clipPath id="clip0_22505_73381">
<rect width="14" height="14" fill="white"/>
</clipPath>
</defs>
</svg>
