<svg width="54" height="54" viewBox="0 0 54 54" fill="none" xmlns="http://www.w3.org/2000/svg">
<path d="M26.6463 4.44092C14.4112 4.44092 4.44104 14.4111 4.44104 26.6461C4.44104 38.8812 14.4112 48.8514 26.6463 48.8514C38.8814 48.8514 48.8515 38.8812 48.8515 26.6461C48.8515 14.4111 38.8814 4.44092 26.6463 4.44092ZM37.2604 21.5389L24.67 34.1293C24.3591 34.4402 23.9372 34.6178 23.4931 34.6178C23.049 34.6178 22.6271 34.4402 22.3163 34.1293L16.0322 27.8452C15.3882 27.2013 15.3882 26.1354 16.0322 25.4915C16.6761 24.8475 17.742 24.8475 18.3859 25.4915L23.4931 30.5987L34.9066 19.1852C35.5506 18.5412 36.6164 18.5412 37.2604 19.1852C37.9043 19.8291 37.9043 20.8728 37.2604 21.5389Z" fill="#41D195"/>
</svg>
