<svg width="18" height="18" viewBox="0 0 18 18" fill="none" xmlns="http://www.w3.org/2000/svg">
<g clip-path="url(#clip0_19877_137907)">
<path fill-rule="evenodd" clip-rule="evenodd" d="M16.4813 8.26225L2.37098 0.115488C2.24193 0.0403678 2.09537 0.000537609 1.94605 0H1.94359C1.79418 0.000593386 1.64756 0.0404441 1.51841 0.115559C1.38835 0.189733 1.28036 0.297181 1.20555 0.426875C1.13073 0.556568 1.09177 0.703834 1.09267 0.853558V17.1469C1.09208 17.2968 1.13108 17.4441 1.20573 17.574C1.28039 17.7039 1.38803 17.8117 1.51778 17.8866C1.64753 17.9616 1.79476 18.0009 1.94459 18.0006C2.09441 18.0003 2.24149 17.9604 2.37095 17.885L16.4813 9.73821C16.6108 9.66342 16.7184 9.55585 16.7932 9.42631C16.868 9.29677 16.9074 9.14981 16.9074 9.00023C16.9074 8.85064 16.868 8.70369 16.7932 8.57415C16.7184 8.4446 16.6108 8.33703 16.4813 8.26225Z" fill="#1455AC"/>
</g>
<defs>
<clipPath id="clip0_19877_137907">
<rect width="18" height="18" fill="white"/>
</clipPath>
</defs>
</svg>
