<svg width="14" height="10" viewBox="0 0 14 10" fill="none" xmlns="http://www.w3.org/2000/svg">
<path d="M12.2871 0H1.21289C0.544113 0 0 0.544113 0 1.21289V8.06836C0 8.73714 0.544113 9.28125 1.21289 9.28125H12.2871C12.9559 9.28125 13.5 8.73714 13.5 8.06836V1.21289C13.5 0.544113 12.9559 0 12.2871 0ZM4.21875 3.69141C4.21875 4.21482 3.79295 4.64062 3.26953 4.64062H2.63672C2.1133 4.64062 1.6875 4.21482 1.6875 3.69141V3.05859C1.6875 2.53518 2.1133 2.10938 2.63672 2.10938H3.26953C3.79295 2.10938 4.21875 2.53518 4.21875 3.05859V3.69141ZM9.64245 5.84587C9.55101 5.84587 9.45894 5.81629 9.38155 5.7553C9.19859 5.61104 9.16716 5.34579 9.31141 5.1628C9.4297 5.01282 9.49219 4.83224 9.49219 4.64062C9.49219 4.44901 9.4297 4.26843 9.31144 4.11842C9.16718 3.93546 9.19862 3.67018 9.38158 3.52593C9.56454 3.38172 9.82982 3.41307 9.97407 3.59606C10.2074 3.89211 10.3359 4.26307 10.3359 4.64062C10.3359 5.01818 10.2074 5.38914 9.97405 5.68516C9.89081 5.79076 9.76725 5.84587 9.64245 5.84587ZM11.004 6.75306C10.9207 6.8459 10.8056 6.89317 10.6899 6.89317C10.5895 6.89317 10.4888 6.85758 10.4083 6.78528C10.2349 6.62969 10.2204 6.36293 10.376 6.18954C10.7583 5.7636 10.9688 5.21353 10.9688 4.64062C10.9688 4.06772 10.7583 3.51765 10.376 3.09171C10.2204 2.91829 10.2349 2.65156 10.4083 2.49597C10.5817 2.34038 10.8484 2.35477 11.004 2.52819C11.5254 3.10917 11.8125 3.85939 11.8125 4.64062C11.8125 5.42186 11.5254 6.17208 11.004 6.75306Z" fill="#1455AC"/>
</svg>
