<svg width="21" height="21" viewBox="0 0 21 21" fill="none" xmlns="http://www.w3.org/2000/svg">
<g clip-path="url(#clip0_19877_138185)">
<path d="M13.0542 3.87279C13.0542 2.83059 12.2111 1.95801 11.1394 1.95801H1.91482C0.840775 1.95801 0 2.83287 0 3.87279V11.0959H13.0542V3.87279Z" fill="#1455AC"/>
<path d="M0 14.9686C0 15.5952 0.299812 16.1501 0.763466 16.4992C0.953834 14.9281 2.29466 13.7065 3.91625 13.7065C5.66796 13.7065 7.09308 15.1317 7.09308 16.8834H13.0541V12.3145H0V14.9686Z" fill="#1455AC"/>
<path d="M3.91613 14.9258C2.8364 14.9258 1.95801 15.8042 1.95801 16.8839C1.95801 17.9636 2.83644 18.842 3.91613 18.842C4.99582 18.842 5.87422 17.9636 5.87422 16.8839C5.87422 15.8042 4.99586 14.9258 3.91613 14.9258Z" fill="#1455AC"/>
<path d="M16.3178 11.7051V5.87402H14.2729V14.3845C14.813 13.9604 15.4927 13.7065 16.2311 13.7065C17.9586 13.7065 19.3675 15.0928 19.4061 16.8112C20.2104 16.5847 20.8 15.8473 20.8 14.9686V12.3145H16.9271C16.5906 12.3144 16.3178 12.0416 16.3178 11.7051Z" fill="#1455AC"/>
<path d="M20.7999 11.0957V9.74692C20.7999 7.81532 19.3858 6.21421 17.5364 5.92188V11.0957H20.7999Z" fill="#1455AC"/>
<path d="M16.2311 18.842C17.3125 18.842 18.1892 17.9653 18.1892 16.8839C18.1892 15.8025 17.3125 14.9258 16.2311 14.9258C15.1496 14.9258 14.2729 15.8025 14.2729 16.8839C14.2729 17.9653 15.1496 18.842 16.2311 18.842Z" fill="#1455AC"/>
</g>
<defs>
<clipPath id="clip0_19877_138185">
<rect width="20.8" height="20.8" fill="white"/>
</clipPath>
</defs>
</svg>
