<svg width="14" height="14" viewBox="0 0 14 14" fill="none" xmlns="http://www.w3.org/2000/svg">
<g clip-path="url(#clip0_19877_137240)">
<path d="M7 0C4.54002 0 2.48828 1.9816 2.48828 4.51172C2.48828 5.47427 2.77752 6.33259 3.33263 7.13688L6.65473 12.3207C6.81589 12.5727 7.18443 12.5722 7.34527 12.3207L10.6818 7.11925C11.2249 6.35141 11.5117 5.4498 11.5117 4.51172C11.5117 2.02396 9.48776 0 7 0ZM7 6.5625C5.86925 6.5625 4.94922 5.64247 4.94922 4.51172C4.94922 3.38097 5.86925 2.46094 7 2.46094C8.13075 2.46094 9.05078 3.38097 9.05078 4.51172C9.05078 5.64247 8.13075 6.5625 7 6.5625Z" fill="#1455AC"/>
<path d="M10.2064 9.4248L8.14114 12.6537C7.60654 13.4872 6.39048 13.4845 5.85845 12.6545L3.78979 9.42565C1.96968 9.84647 0.847656 10.6174 0.847656 11.5386C0.847656 13.1372 4.01756 13.9996 7 13.9996C9.98244 13.9996 13.1523 13.1372 13.1523 11.5386C13.1523 10.6167 12.0288 9.84541 10.2064 9.4248Z" fill="#1455AC"/>
</g>
<defs>
<clipPath id="clip0_19877_137240">
<rect width="14" height="14" fill="white"/>
</clipPath>
</defs>
</svg>
