<svg width="12" height="13" viewBox="0 0 12 13" fill="none" xmlns="http://www.w3.org/2000/svg">
<path d="M6 6.37134C6.275 6.37134 6.5105 6.27334 6.7065 6.07734C6.90217 5.88167 7 5.64634 7 5.37134C7 5.09634 6.90217 4.86084 6.7065 4.66484C6.5105 4.46917 6.275 4.37134 6 4.37134C5.725 4.37134 5.48967 4.46917 5.294 4.66484C5.098 4.86084 5 5.09634 5 5.37134C5 5.64634 5.098 5.88167 5.294 6.07734C5.48967 6.27334 5.725 6.37134 6 6.37134ZM6 10.0463C7.01667 9.11301 7.77083 8.26501 8.2625 7.50234C8.75417 6.74001 9 6.063 9 5.47134C9 4.563 8.71033 3.81917 8.131 3.23984C7.552 2.66084 6.84167 2.37134 6 2.37134C5.15833 2.37134 4.44783 2.66084 3.8685 3.23984C3.2895 3.81917 3 4.563 3 5.47134C3 6.063 3.24583 6.74001 3.7375 7.50234C4.22917 8.26501 4.98333 9.11301 6 10.0463ZM6 11.1838C5.93333 11.1838 5.86667 11.1713 5.8 11.1463C5.73333 11.1213 5.675 11.088 5.625 11.0463C4.40833 9.97134 3.5 8.97351 2.9 8.05284C2.3 7.13184 2 6.27134 2 5.47134C2 4.22134 2.40217 3.2255 3.2065 2.48384C4.0105 1.74217 4.94167 1.37134 6 1.37134C7.05833 1.37134 7.9895 1.74217 8.7935 2.48384C9.59783 3.2255 10 4.22134 10 5.47134C10 6.27134 9.7 7.13184 9.1 8.05284C8.5 8.97351 7.59167 9.97134 6.375 11.0463C6.325 11.088 6.26667 11.1213 6.2 11.1463C6.13333 11.1713 6.06667 11.1838 6 11.1838Z" fill="#1455AC"/>
</svg>
