<svg width="24" height="24" viewBox="0 0 24 24" fill="none" xmlns="http://www.w3.org/2000/svg">
<path d="M3.75 9.75C3.75 5.19365 7.44365 1.5 12 1.5C16.5563 1.5 20.25 5.19365 20.25 9.75V10.5945C21.5439 10.9276 22.5 12.1022 22.5 13.5V16.5C22.5 18.1568 21.1568 19.5 19.5 19.5C19.327 19.5 19.1575 19.4854 18.9925 19.4573C17.9657 21.4097 15.8734 22.6073 13.6499 22.4926C13.6006 22.4975 13.5506 22.5 13.5 22.5H12C11.1715 22.5 10.5 21.8285 10.5 21C10.5 20.1716 11.1715 19.5 12 19.5H13.5C14.2832 19.5 14.9263 20.1003 14.9941 20.8659C16.0988 20.5803 17.0592 19.8535 17.6215 18.8393C16.9377 18.2894 16.5 17.4458 16.5 16.5V13.5C16.5 12.1022 17.4561 10.9276 18.75 10.5945V9.75C18.75 6.02208 15.728 3 12 3C8.27205 3 5.25 6.02208 5.25 9.75V10.5945C6.54392 10.9276 7.5 12.1022 7.5 13.5V16.5C7.5 18.1568 6.15686 19.5 4.5 19.5C2.84314 19.5 1.5 18.1568 1.5 16.5V13.5C1.5 12.1022 2.45608 10.9276 3.75 10.5945V9.75Z" fill="#1455AC"/>
</svg>
