<svg width="40" height="40" viewBox="0 0 40 40" fill="none" xmlns="http://www.w3.org/2000/svg">
<g opacity="0.8">
<path d="M34.0938 12.874H25.8345V27.8436H39.3667V21.1058L37.7885 15.6513C37.3127 14.0064 35.8061 12.874 34.0938 12.874Z" fill="#1170FF"/>
<path d="M37.391 21.0367L35.9845 16.1746C35.742 15.3389 34.9646 14.7539 34.0938 14.7539H27.7143V21.0367H37.391Z" fill="#84DBFF"/>
<path d="M37.3927 21.0338H27.711V14.751L37.3927 21.0338Z" fill="white"/>
<path d="M37.391 21.0367L35.9845 16.1746C35.742 15.3389 34.9646 14.7539 34.0938 14.7539H27.7143L37.391 21.0367Z" fill="white"/>
<path d="M2.49979 5.3584H23.3347C24.7146 5.3584 25.8345 6.47745 25.8345 7.85819V27.8424H0V7.85819C0 6.47752 1.11905 5.3584 2.49979 5.3584Z" fill="#E30404"/>
<path d="M16.9319 5.3623V11.9675L15.9653 11.001L14.9521 12.0142L13.9397 11.001L12.9273 12.0142L11.9131 11.001L10.8874 12.0142L9.87581 11.001L8.89761 11.9792V5.3623H16.9319Z" fill="white" fill-opacity="0.5"/>
<path d="M40 27.8413V30.6661H0.00335693V27.8413H4.17801C5.15292 26.0915 7.02777 24.9082 9.17759 24.9082C11.319 24.9082 13.1939 26.0915 14.1772 27.8413H27.6094C28.5843 26.0915 30.45 24.9082 32.5998 24.9082C34.7497 24.9082 36.6161 26.0915 37.5994 27.8413H40Z" fill="#454545"/>
<path d="M36.5919 30.6484C36.5919 32.8532 34.8046 34.6406 32.5998 34.6406C30.3949 34.6406 28.6092 32.8532 28.6092 30.6484C28.6092 28.4436 30.3957 26.6562 32.5998 26.6562C34.8054 26.6562 36.5919 28.4436 36.5919 30.6484Z" fill="#535353"/>
<path d="M34.2046 30.6491C34.2046 31.5349 33.4863 32.2523 32.6014 32.2523C31.7156 32.2523 30.9965 31.5349 30.9965 30.6491C30.9965 29.7633 31.7148 29.0459 32.6014 29.0459C33.4863 29.0451 34.2046 29.7634 34.2046 30.6491Z" fill="#E9E9E9"/>
<path d="M13.1664 30.6484C13.1664 32.8532 11.3782 34.6406 9.17423 34.6406C6.96942 34.6406 5.18207 32.8532 5.18207 30.6484C5.18207 28.4436 6.96942 26.6562 9.17423 26.6562C11.3782 26.6562 13.1664 28.4436 13.1664 30.6484Z" fill="#535353"/>
<path d="M10.7775 30.6491C10.7775 31.5349 10.06 32.2523 9.17423 32.2523C8.28844 32.2523 7.57022 31.5349 7.57022 30.6491C7.57022 29.7633 8.28852 29.0459 9.17423 29.0459C10.0599 29.0459 10.7775 29.7634 10.7775 30.6491Z" fill="#E9E9E9"/>
</g>
</svg>
