<svg width="16" height="16" viewBox="0 0 16 16" fill="none" xmlns="http://www.w3.org/2000/svg">
<g clip-path="url(#clip0_19877_135400)">
<path d="M12.4438 13.3329H7.11046V9.77734H6.22157V13.3329H3.5549V9.77734H2.66602V13.3329C2.66602 13.5686 2.75967 13.7947 2.92637 13.9614C3.09306 14.1281 3.31916 14.2218 3.5549 14.2218H12.4438C12.6795 14.2218 12.9056 14.1281 13.0723 13.9614C13.239 13.7947 13.3327 13.5686 13.3327 13.3329V9.77734H12.4438V13.3329Z" fill="#1455AC"/>
<path d="M15.0176 5.89734L13.2042 2.27068C13.1306 2.12258 13.0172 1.99795 12.8767 1.9108C12.7361 1.82365 12.574 1.77743 12.4087 1.77734H3.5909C3.42553 1.77743 3.26346 1.82365 3.12292 1.9108C2.98238 1.99795 2.86894 2.12258 2.79535 2.27068L0.982012 5.89734C0.920099 6.02156 0.888135 6.15855 0.888679 6.29734V7.66623C0.888273 7.87392 0.960607 8.0752 1.09312 8.23512C1.28897 8.45963 1.53086 8.63934 1.80234 8.76204C2.07382 8.88474 2.36854 8.94756 2.66646 8.94623C3.15258 8.94699 3.62387 8.77889 3.99979 8.47068C4.37571 8.77907 4.8469 8.94761 5.33312 8.94761C5.81935 8.94761 6.29054 8.77907 6.66646 8.47068C7.04237 8.77907 7.51356 8.94761 7.99979 8.94761C8.48602 8.94761 8.95721 8.77907 9.33312 8.47068C9.70904 8.77907 10.1802 8.94761 10.6665 8.94761C11.1527 8.94761 11.6239 8.77907 11.9998 8.47068C12.4194 8.81522 12.9563 8.98365 13.4975 8.94055C14.0388 8.89745 14.5422 8.64618 14.902 8.23957C15.0361 8.08026 15.1101 7.87892 15.1109 7.67068V6.29734C15.1114 6.15855 15.0795 6.02156 15.0176 5.89734ZM6.66646 6.39957V7.07512L6.30201 7.55512C6.19014 7.70761 6.04392 7.83161 5.87521 7.91708C5.7065 8.00255 5.52003 8.04708 5.3309 8.04708C5.14177 8.04708 4.95531 8.00255 4.78659 7.91708C4.61788 7.83161 4.47167 7.70761 4.35979 7.55512L3.99979 7.05734V6.39957L5.1509 2.66623H7.1109L6.66646 6.39957ZM11.9998 7.05734L11.6398 7.55512C11.5279 7.70761 11.3817 7.83161 11.213 7.91708C11.0443 8.00255 10.8578 8.04708 10.6687 8.04708C10.4796 8.04708 10.2931 8.00255 10.1244 7.91708C9.95566 7.83161 9.80944 7.70761 9.69757 7.55512L9.33312 7.05734V6.39957L8.88868 2.66623H10.8665L11.9998 6.39957V7.05734Z" fill="#1455AC"/>
</g>
<defs>
<clipPath id="clip0_19877_135400">
<rect width="16" height="16" fill="white"/>
</clipPath>
</defs>
</svg>
