<svg width="16" height="16" viewBox="0 0 16 16" fill="none" xmlns="http://www.w3.org/2000/svg">
<g clip-path="url(#clip0_19877_139806)">
<path d="M13.3255 3.44621C12.1713 2.25234 10.6776 1.49318 9.05644 1.26224L9.51851 0.80018C9.70157 0.617117 9.70157 0.320336 9.51851 0.137273C9.33547 -0.0457578 9.03866 -0.0457578 8.8556 0.137273L7.66851 1.32434C7.48544 1.50737 7.48544 1.80418 7.66851 1.98724L8.85557 3.1743C8.9471 3.26584 9.06707 3.31162 9.18701 3.31162C9.30694 3.31162 9.42694 3.26584 9.51844 3.1743C9.70151 2.99127 9.70151 2.69446 9.51844 2.5114L9.25297 2.24593C10.5409 2.49796 11.7221 3.13652 12.6514 4.09777C13.8234 5.31015 14.4689 6.90677 14.4689 8.59349C14.4689 12.1605 11.5669 15.0625 7.99997 15.0625C4.43301 15.0625 1.53101 12.1605 1.53101 8.59352C1.53101 7.23243 1.94872 5.93043 2.73904 4.8283C3.51294 3.74902 4.57982 2.94368 5.82441 2.49937C6.06822 2.4123 6.19529 2.14412 6.10826 1.90027C6.02122 1.65646 5.75297 1.5294 5.50916 1.61643C4.08407 2.12521 2.86272 3.04696 1.97713 4.28199C1.07194 5.54437 0.593506 7.03527 0.593506 8.59355C0.593506 10.5719 1.36391 12.4318 2.76282 13.8307C4.16172 15.2295 6.02163 16 7.99997 16C9.97832 16 11.8382 15.2296 13.2371 13.8307C14.636 12.4318 15.4064 10.5719 15.4064 8.59352C15.4064 6.66234 14.6674 4.8343 13.3255 3.44621Z" fill="#FFBB38"/>
<path d="M3.18384 8.5935C3.18384 11.2491 5.34434 13.4096 7.99996 13.4096C10.6556 13.4096 12.8161 11.2491 12.8161 8.5935C12.8161 5.93791 10.6556 3.77734 7.99996 3.77734C5.34431 3.77734 3.18384 5.93787 3.18384 8.5935ZM8.28771 9.01072C7.61296 8.77219 7.22203 8.58419 6.9384 8.36172C6.58934 8.08794 6.42956 7.61509 6.52137 7.12775C6.62099 6.59906 6.98968 6.17819 7.48359 6.02941C7.49043 6.02734 7.49715 6.02569 7.50396 6.02369V5.83494C7.50396 5.57606 7.71384 5.36619 7.97271 5.36619C8.23159 5.36619 8.44146 5.57606 8.44146 5.83494V5.99384C8.76874 6.0705 8.99718 6.22009 9.08953 6.28912C9.29687 6.44416 9.33931 6.73787 9.18431 6.94525C9.02927 7.15263 8.73562 7.195 8.52818 7.04003C8.42893 6.96584 8.15499 6.80622 7.75399 6.92703C7.51709 6.99841 7.45581 7.23156 7.44265 7.30134C7.41668 7.43916 7.44653 7.56888 7.51693 7.62406C7.76215 7.81634 8.20209 7.98612 8.60012 8.12681C9.32824 8.38419 9.73312 9.05872 9.60762 9.80525C9.54599 10.1718 9.36162 10.5119 9.08837 10.7629C8.90046 10.9356 8.68149 11.0583 8.44146 11.1276V11.352C8.44146 11.6109 8.23159 11.8207 7.97271 11.8207C7.71384 11.8207 7.50396 11.6109 7.50396 11.352V11.1737C7.19212 11.137 6.9319 11.041 6.58193 10.812C6.36528 10.6703 6.30456 10.3798 6.44628 10.1631C6.58799 9.94644 6.87856 9.88575 7.09518 10.0275C7.41965 10.2398 7.54234 10.2593 7.96959 10.2563C8.39024 10.2535 8.63431 9.93994 8.68309 9.64981C8.70696 9.50812 8.71612 9.16216 8.28771 9.01072Z" fill="#FFBB38"/>
</g>
<defs>
<clipPath id="clip0_19877_139806">
<rect width="16" height="16" fill="white"/>
</clipPath>
</defs>
</svg>
